# Blender v2.91.2 OBJ File: ''
# www.blender.org
o Cube
v -0.498027 1.725078 0.311152
v -0.498027 1.725078 -0.488172
v 0.410614 1.725078 0.311152
v 0.410614 1.725078 -0.488172
v -1.000000 -1.000000 1.000000
v -1.000000 1.000000 1.000000
v -1.000000 -1.000000 -1.000000
v -1.000000 1.000000 -1.000000
v 1.000000 -1.000000 1.000000
v 1.000000 1.000000 1.000000
v 1.000000 -1.000000 -1.000000
v 1.000000 1.000000 -1.000000
v -0.498027 1.000000 0.311152
v -0.498027 1.000000 -0.488172
v 0.410614 1.000000 -0.488172
v 0.410614 1.000000 0.311152
vt 0.625000 0.500000
vt 0.875000 0.500000
vt 0.875000 0.750000
vt 0.625000 0.750000
vt 0.375000 0.000000
vt 0.625000 0.000000
vt 0.625000 0.250000
vt 0.375000 0.250000
vt 0.625000 0.500000
vt 0.375000 0.500000
vt 0.625000 0.750000
vt 0.375000 0.750000
vt 0.625000 1.000000
vt 0.375000 1.000000
vt 0.125000 0.500000
vt 0.125000 0.750000
vt 0.534365 0.000000
vt 0.625000 0.000000
vt 0.625000 0.250000
vt 0.534365 0.250000
vt 0.534365 0.500000
vt 0.534365 0.750000
vt 0.625000 1.000000
vt 0.534365 1.000000
vt 0.698673 0.563978
vt 0.875000 0.500000
vt 0.812253 0.563978
vt 0.875000 0.750000
vt 0.698673 0.663894
vt 0.812253 0.663894
vn 0.0000 1.0000 0.0000
vn -1.0000 0.0000 0.0000
vn 0.0000 0.0000 -1.0000
vn 1.0000 0.0000 0.0000
vn 0.0000 0.0000 1.0000
vn 0.0000 -1.0000 0.0000
usemtl None
s off
f 4/1/1 2/2/1 1/3/1 3/4/1
f 5/5/2 6/6/2 8/7/2 7/8/2
f 7/8/3 8/7/3 12/9/3 11/10/3
f 11/10/4 12/9/4 10/11/4 9/12/4
f 9/12/5 10/11/5 6/13/5 5/14/5
f 7/15/6 11/10/6 9/12/6 5/16/6
f 13/17/2 1/18/2 2/19/2 14/20/2
f 2/19/3 4/1/3 15/21/3 14/20/3
f 15/21/4 4/1/4 3/4/4 16/22/4
f 16/22/5 3/4/5 1/23/5 13/24/5
f 15/25/1 12/9/1 8/26/1 14/27/1
f 8/26/1 6/28/1 10/11/1 12/9/1 15/25/1 16/29/1 13/30/1 14/27/1
